<svg width="64" height="64" viewBox="0 0 64 64" fill="none" xmlns="http://www.w3.org/2000/svg">
<path d="M32 4C16.5375 4 4 16.5375 4 32C4 47.4625 16.5375 60 32 60C47.4625 60 60 47.4625 60 32C60 16.5375 47.4625 4 32 4ZM32 55.25C19.1625 55.25 8.75 44.8375 8.75 32C8.75 19.1625 19.1625 8.75 32 8.75C44.8375 8.75 55.25 19.1625 55.25 32C55.25 44.8375 44.8375 55.25 32 55.25Z" fill="#DEDDDF" fill-opacity="0.75"/>
<path d="M44.9625 31.1937L26.4563 17.7562C26.3078 17.6474 26.1321 17.582 25.9487 17.5672C25.7652 17.5524 25.5813 17.5888 25.4173 17.6724C25.2534 17.756 25.1159 17.8835 25.0201 18.0406C24.9244 18.1978 24.8741 18.3785 24.875 18.5625V45.4375C24.875 46.2562 25.8 46.7187 26.4563 46.2437L44.9625 32.8062C45.0903 32.7142 45.1943 32.5931 45.2661 32.4529C45.3379 32.3127 45.3753 32.1575 45.3753 32C45.3753 31.8425 45.3379 31.6873 45.2661 31.5471C45.1943 31.4069 45.0903 31.2858 44.9625 31.1937ZM28.8625 39.5687V24.4312L39.2813 32L28.8625 39.5687Z" fill="#DEDDDF" fill-opacity="0.75"/>
</svg>
